<svg enable-background="new 0 0 150 80" viewBox="0 0 150 80" xmlns="http://www.w3.org/2000/svg"><path d="m3 0h144c1.7 0 3 1.3 3 3v74c0 1.7-1.3 3-3 3h-144c-1.7 0-3-1.3-3-3v-74c0-1.7 1.3-3 3-3zm124 0c0 1.1-.9 2-2 2s-2-.9-2-2zm-2 6c1.1 0 2 .9 2 2s-.9 2-2 2-2-.9-2-2 .9-2 2-2zm0 8c1.1 0 2 .9 2 2s-.9 2-2 2-2-.9-2-2 .9-2 2-2zm0 8c1.1 0 2 .9 2 2s-.9 2-2 2-2-.9-2-2 .9-2 2-2zm0 8c1.1 0 2 .9 2 2s-.9 2-2 2-2-.9-2-2 .9-2 2-2zm0 8c1.1 0 2 .9 2 2s-.9 2-2 2-2-.9-2-2 .9-2 2-2zm0 8c1.1 0 2 .9 2 2s-.9 2-2 2-2-.9-2-2 .9-2 2-2zm0 8c1.1 0 2 .9 2 2s-.9 2-2 2-2-.9-2-2 .9-2 2-2zm0 8c1.1 0 2 .9 2 2s-.9 2-2 2-2-.9-2-2 .9-2 2-2zm0 8c1.1 0 2 .9 2 2s-.9 2-2 2-2-.9-2-2 .9-2 2-2zm0 8c1.1 0 2 .9 2 2h-2-2c0-1.1.9-2 2-2z"/></svg>