<svg viewBox="0 0 329 86" xmlns="http://www.w3.org/2000/svg"><g fill-rule="evenodd"><path d="m324 0h-177.28a2 2 0 0 1 -1.72 1 2 2 0 0 1 -1.72-1h-138.28a5 5 0 0 0 -5 5v76a5 5 0 0 0 5 5h138.28a2 2 0 0 1 3.44 0h177.28a5 5 0 0 0 5-5v-76a5 5 0 0 0 -5-5zm-179 81a2 2 0 1 1 2-2 2 2 0 0 1 -2 2zm0-8a2 2 0 1 1 2-2 2 2 0 0 1 -2 2zm0-8a2 2 0 1 1 2-2 2 2 0 0 1 -2 2zm0-8a2 2 0 1 1 2-2 2 2 0 0 1 -2 2zm0-8a2 2 0 1 1 2-2 2 2 0 0 1 -2 2zm0-8a2 2 0 1 1 2-2 2 2 0 0 1 -2 2zm0-8a2 2 0 1 1 2-2 2 2 0 0 1 -2 2zm0-8a2 2 0 1 1 2-2 2 2 0 0 1 -2 2zm0-8a2 2 0 1 1 2-2 2 2 0 0 1 -2 2zm0-8a2 2 0 1 1 2-2 2 2 0 0 1 -2 2z" fill="#fff0d9"/><path d="m324 0h-177.78a2 2 0 0 1 -1.22.93v4.14a2 2 0 0 1 0 3.86v4.14a2 2 0 0 1 0 3.86v4.14a2 2 0 0 1 0 3.86v4.14a2 2 0 0 1 0 3.86v4.14a2 2 0 0 1 0 3.86v4.14a2 2 0 0 1 0 3.86v4.14a2 2 0 0 1 0 3.86v4.14a2 2 0 0 1 0 3.86v4.14a2 2 0 0 1 0 3.86v4.14a2 2 0 0 1 0 3.86v4.14a2 2 0 0 1 1.22.93h177.78a5 5 0 0 0 5-5v-76a5 5 0 0 0 -5-5z" fill="#fff8ec"/></g></svg>