<svg enable-background="new 0 0 420 96" viewBox="0 0 420 96" xmlns="http://www.w3.org/2000/svg"><g clip-rule="evenodd" fill="#fff" fill-rule="evenodd"><path d="m385 42-7-11 13 2zm-13 38 6-14 13-3 7 17z"/><path d="m350 0h70v10l-2 2h-66l-2-2zm2 84h66l2 2v10h-70v-10zm62-72c-1.6 6.3-3.9 12.3-7 18-4.9 9-10 18-10 18s5.1 9 10 18c3.1 5.7 5.4 11.7 7 18h-58s3-9.1 7-18c2.9-6.2 6.2-12.3 10-18 0 0-5-9-10-18-3.1-5.7-5.4-11.7-7-18zm-49 72c2.1-6.6 4.7-12.9 8-19 5-9 9-16 9-16v-2s-4-7-9-16c-3.3-6.1-5.9-12.4-8-19h40c-2.1 6.6-4.8 12.9-8 19-4.9 9-9 16-9 16v2s3.9 7 9 16c3.3 6.1 6 12.4 8 19z"/><path d="m315 42-7-11 14-2zm-13 38 6-14 15 2 5 12z"/><path d="m280 0h70v10l-2 2h-66l-2-2zm2 84h66l2 2v10h-70v-10zm62-72c-1.6 6.3-3.9 12.3-7 18-4.9 9-10 18-10 18s5.1 9 10 18c3.1 5.7 5.4 11.7 7 18h-58s3-9.1 7-18c2.9-6.2 6.2-12.3 10-18 0 0-5-9-10-18-3.1-5.7-5.4-11.7-7-18zm-49 72c2.1-6.6 4.7-12.9 8-19 5-9 9-16 9-16v-2s-4-7-9-16c-3.3-6.1-5.9-12.4-8-19h40c-2.1 6.6-4.8 12.9-8 19-4.9 9-9 16-9 16v2s3.9 7 9 16c3.3 6.1 6 12.4 8 19z"/><path d="m245 42-9-15 16 2zm-13 38 4-10 17-2 5 12z"/><path d="m210 0h70v10l-2 2h-66l-2-2zm2 84h66l2 2v10h-70v-10zm62-72c-1.6 6.3-3.9 12.3-7 18-4.9 9-10 18-10 18s5.1 9 10 18c3.1 5.7 5.4 11.7 7 18h-58s3-9.1 7-18c2.9-6.2 6.2-12.3 10-18 0 0-5-9-10-18-3.1-5.7-5.4-11.7-7-18zm-49 72c2.1-6.6 4.7-12.9 8-19 5-9 9-16 9-16v-2s-4-7-9-16c-3.3-6.1-5.9-12.4-8-19h40c-2.1 6.6-4.8 12.9-8 19-4.9 9-9 16-9 16v2s3.9 7 9 16c3.3 6.1 6 12.4 8 19z"/><path d="m140 0h70v10l-2 2h-66l-2-2zm2 84h66l2 2v10h-70v-10zm62-72c-1.6 6.3-3.9 12.3-7 18-4.9 9-10 18-10 18s5.1 9 10 18c3.1 5.7 5.4 11.7 7 18h-58s3-9.1 7-18c2.9-6.2 6.2-12.3 10-18 0 0-5-9-10-18-3.1-5.7-5.4-11.7-7-18zm-49 72c2.1-6.6 4.7-12.9 8-19 5-9 9-16 9-16v-2s-4-7-9-16c-3.3-6.1-5.9-12.4-8-19h40c-2.1 6.6-4.8 12.9-8 19-4.9 9-9 16-9 16v2s3.9 7 9 16c3.3 6.1 6 12.4 8 19z"/><path d="m175 42-8-15 17-2zm-13 38 4-10 19 2 3 8z"/><path d="m70 0h70v10l-2 2h-66l-2-2zm2 84h66l2 2v10h-70v-10zm62-72c-1.6 6.3-3.9 12.3-7 18-4.9 9-10 18-10 18s5.1 9 10 18c3.1 5.7 5.4 11.7 7 18h-58s3-9.1 7-18c2.9-6.2 6.2-12.3 10-18 0 0-5-9-10-18-3.1-5.7-5.4-11.7-7-18zm-49 72c2.1-6.6 4.7-12.9 8-19 5-9 9-16 9-16v-2s-4-7-9-16c-3.3-6.1-5.9-12.4-8-19h40c-2.1 6.6-4.8 12.9-8 19-4.9 9-9 16-9 16v2s3.9 7 9 16c3.3 6.1 6 12.4 8 19z"/><path d="m105 42-10-19 19 2zm-13 38 3-6 19-2 4 8z"/><path d="m0 0h70v10l-2 2h-66l-2-2zm2 84h66l2 2v10h-70v-10zm62-72c-1.6 6.3-3.9 12.3-7 18-4.9 9-10 18-10 18s5.1 9 10 18c3.1 5.7 5.4 11.7 7 18h-58s3-9.1 7-18c2.9-6.2 6.2-12.3 10-18 0 0-5-9-10-18-3.1-5.7-5.4-11.7-7-18zm-49 72c2.1-6.6 4.7-12.9 8-19 5-9 9-16 9-16v-2s-4-7-9-16c-3.3-6.1-5.9-12.4-8-19h40c-2.1 6.6-4.8 12.9-8 19-4.9 9-9 16-9 16v2s3.9 7 9 16c3.3 6.1 6 12.4 8 19z"/><path d="m35 42-10-19 21-3zm-13 38 7-5 13 1 6 4z"/></g></svg>