<svg height="79" viewBox="0 0 96 79" width="96" xmlns="http://www.w3.org/2000/svg"><path d="m344 799h8v-12h76v12h8l2-1v-23h-96v23zm8-26v-3h76v3zm67 6h8v4h-8zm-64 70h5s-.031-3 2-3a1.985 1.985 0 0 1 2 2l1 1h2l1-1a1.9 1.9 0 0 1 2-2 1.979 1.979 0 0 1 2 2l1 1h1.969l1.031-1a2 2 0 0 1 4 0l1 1h2l1-1a1.925 1.925 0 0 1 2-2 2.083 2.083 0 0 1 2 2l1 1h2l1-1a1.944 1.944 0 0 1 2-2 2.016 2.016 0 0 1 2 2l1 1h2l1-1a2 2 0 0 1 4 0l1 1h2l1-1a1.985 1.985 0 0 1 2-2 1.959 1.959 0 0 1 2 2l.969 1h2.031l1-1a2 2 0 0 1 2-2c1.94 0 2 3 2 3h5v-60h-70zm10-50h19v4h-19zm0 8h29v4h-29zm0 8h50v4h-50zm0 8h50v4h-50zm22-24h28v4h-28zm10 8h18v4h-18zm-32 26h16v6h-16zm19 0h17v6h-17z" fill="#a79ac3" fill-rule="evenodd" transform="translate(-342 -770)"/></svg>