<svg enable-background="new 0 0 150 84" viewBox="0 0 150 84" xmlns="http://www.w3.org/2000/svg"><g fill="#22084d"><path d="m147 84c1.7 0 3-1.3 3-3v-78c0-1.7-1.3-3-3-3h-144c-1.7 0-3 1.3-3 3v78c0 1.7 1.3 3 3 3"/><circle cx="126" cy="77" r="2"/><circle cx="126" cy="70" r="2"/><circle cx="126" cy="56" r="2"/><circle cx="126" cy="63" r="2"/><path d="m126 82c-1.1 0-2 .9-2 2h4c0-1.1-.9-2-2-2z"/><path d="m126 2c1.1 0 2-.9 2-2h-4c0 1.1.9 2 2 2z"/><circle cx="126" cy="14" r="2"/><circle cx="126" cy="7" r="2"/><circle cx="126" cy="21" r="2"/><circle cx="126" cy="49" r="2"/><circle cx="126" cy="28" r="2"/><circle cx="126" cy="42" r="2"/><circle cx="126" cy="35" r="2"/></g></svg>