<svg enable-background="new 0 0 576 79" viewBox="0 0 576 79" xmlns="http://www.w3.org/2000/svg"><g clip-rule="evenodd" fill="#d8e1f0" fill-rule="evenodd"><path d="m482 29h8v-12h76v12h8l2-1v-23h-96v23zm8-26v-3h76v3zm68 6h8v4h-8zm-65 70h5s0-3 2-3c1.1 0 2 .9 2 2l1 1h2l1-1c-.1-1 .7-1.9 1.8-2h.2c1.1 0 2 .9 2 2l1 1h2l1-1c0-1.1.9-2 2-2s2 .9 2 2l1 1h2l1-1c0-1.1.8-2 1.8-2h.2c1.1 0 2 .9 2 2l1 1h2l1-1c0-1.1.8-2 1.9-2h.1c1.1 0 2 .9 2 2l1 1h2l1-1c0-1.1.9-2 2-2s2 .9 2 2l1 1h2l1-1c0-1.1.9-2 2-2s2 .8 2 1.9v.1l1 1h2l1-1c0-1.1.9-2 2-2 1.9 0 2 3 2 3h5v-60h-70zm10-50h19v4h-19zm0 8h29v4h-29zm0 8h50v4h-50zm0 8h6v4h-6zm22-24h28v4h-28zm10 8h18v4h-18zm-32 26h14v6h-14zm17 0h18v6h-18zm-8-10h41v4h-41z"/><path d="m386 29h8v-12h76v12h8l2-1v-23h-96v23zm8-26v-3h76v3zm68 6h8v4h-8zm-65 62h5s0-3 2-3c1.1 0 2 .9 2 2l1 1h2l1-1c-.1-1 .7-1.9 1.8-2h.2c1.1 0 2 .9 2 2l1 1h2l1-1c0-1.1.9-2 2-2s2 .9 2 2l1 1h2l1-1c0-1.1.8-2 1.8-2h.2c1.1 0 2 .9 2 2l1 1h2l1-1c0-1.1.8-2 1.9-2h.1c1.1 0 2 .9 2 2l1 1h2l1-1c0-1.1.9-2 2-2s2 .9 2 2l1 1h2l1-1c0-1.1.9-2 2-2s2 .8 2 1.9v.1l1 1h2l1-1c0-1.1.9-2 2-2 1.9 0 2 3 2 3h5v-52h-70zm10-42h29v4h-29zm0 8h50v4h-50zm0 8h6v4h-6zm32-16h18v4h-18zm-32 26h14v6h-14zm17 0h18v6h-18zm-8-10h41v4h-41z"/><path d="m290 29h8v-12h76v12h8l2-1v-23h-96v23zm8-26v-3h76v3zm68 6h8v4h-8zm-65 54h5s0-3 2-3c1.1 0 2 .9 2 2l1 1h2l1-1c-.1-1 .7-1.9 1.8-2h.2c1.1 0 2 .9 2 2l1 1h2l1-1c0-1.1.9-2 2-2s2 .9 2 2l1 1h2l1-1c0-1.1.8-2 1.8-2h.2c1.1 0 2 .9 2 2l1 1h2l1-1c0-1.1.8-2 1.9-2h.1c1.1 0 2 .9 2 2l1 1h2l1-1c0-1.1.9-2 2-2s2 .9 2 2l1 1h2l1-1c0-1.1.9-2 2-2s2 .8 2 1.9v.1l1 1h2l1-1c0-1.1.9-2 2-2 1.9 0 2 3 2 3h5v-44h-70zm10-34h50v4h-50zm0 8h6v4h-6zm0 10h14v6h-14zm17 0h18v6h-18zm-8-10h41v4h-41z"/><path d="m194 29h8v-12h76v12h8l2-1v-23h-96v23zm8-26v-3h76v3zm68 6h8v4h-8zm-65 46h5s0-3 2-3c1.1 0 2 .9 2 2l1 1h2l1-1c-.1-1 .7-1.9 1.8-2h.2c1.1 0 2 .9 2 2l1 1h2l1-1c0-1.1.9-2 2-2s2 .9 2 2l1 1h2l1-1c0-1.1.8-2 1.8-2h.2c1.1 0 2 .9 2 2l1 1h2l1-1c0-1.1.8-2 1.9-2h.1c1.1 0 2 .9 2 2l1 1h2l1-1c0-1.1.9-2 2-2s2 .9 2 2l1 1h2l1-1c0-1.1.9-2 2-2s2 .8 2 1.9v.1l1 1h2l1-1c0-1.1.9-2 2-2 1.9 0 2 3 2 3h5v-36h-70zm10-26h6v4h-6zm0 10h14v6h-14zm17 0h18v6h-18zm-8-10h41v4h-41z"/><path d="m98 29h8v-12h76v12h8l2-1v-23h-96v23zm8-26v-3h76v3zm68 6h8v4h-8zm-65 38h5s0-3 2-3c1.1 0 2 .9 2 2l1 1h2l1-1c-.1-1 .7-1.9 1.8-2h.2c1.1 0 2 .9 2 2l1 1h2l1-1c0-1.1.9-2 2-2s2 .9 2 2l1 1h2l1-1c0-1.1.8-2 1.8-2h.2c1.1 0 2 .9 2 2l1 1h2l1-1c0-1.1.8-2 1.9-2h.1c1.1 0 2 .9 2 2l1 1h2l1-1c0-1.1.9-2 2-2s2 .9 2 2l1 1h2l1-1c0-1.1.9-2 2-2s2 .8 2 1.9v.1l1 1h2l1-1c0-1.1.9-2 2-2 1.9 0 2 3 2 3h5v-28h-70zm10-16h14v6h-14zm17 0h18v6h-18z"/><path d="m2 29h8v-12h76v12h8l2-1v-23h-96v23zm8-26v-3h76v3zm68 6h8v4h-8zm-65 30h5s0-3 2-3c1.1 0 2 .9 2 2l1 1h2l1-1c-.1-1 .7-1.9 1.8-2h.2c1.1 0 2 .9 2 2l1 1h2l1-1c0-1.1.9-2 2-2s2 .9 2 2l1 1h2l1-1c0-1.1.8-2 1.8-2h.2c1.1 0 2 .9 2 2l1 1h2l1-1c0-1.1.8-2 1.9-2h.1c1.1 0 2 .9 2 2l1 1h2l1-1c0-1.1.9-2 2-2s2 .9 2 2l1 1h2l1-1c0-1.1.9-2 2-2s2 .8 2 1.9v.1l1 1h2l1-1c0-1.1.9-2 2-2 1.9 0 2 3 2 3h5v-20h-70z"/></g></svg>